<?xml version="1.0" encoding="us-ascii" standalone="no"?><svg xmlns="http://www.w3.org/2000/svg" xmlns:xlink="http://www.w3.org/1999/xlink" contentStyleType="text/css" height="975px" preserveAspectRatio="none" style="width:1402px;height:975px;background:#FFFFFF;" version="1.1" viewBox="0 0 1402 975" width="1402px" zoomAndPan="magnify"><defs/><g><!--cluster it--><g id="cluster_it"><polygon fill="none" points="16,6,31,6,38,29.6094,1385,29.6094,1385,968,16,968,16,6" style="stroke:#000000;stroke-width:1.5;"/><line style="stroke:#000000;stroke-width:1.5;" x1="16" x2="38" y1="29.6094" y2="29.6094"/><text fill="#000000" font-family="sans-serif" font-size="14" font-weight="bold" lengthAdjust="spacing" textLength="9" x="20" y="22.5332">it</text></g><!--cluster unibo--><g id="cluster_unibo"><polygon fill="none" points="40,50,86,50,93,73.6094,1361,73.6094,1361,944,40,944,40,50" style="stroke:#000000;stroke-width:1.5;"/><line style="stroke:#000000;stroke-width:1.5;" x1="40" x2="93" y1="73.6094" y2="73.6094"/><text fill="#000000" font-family="sans-serif" font-size="14" font-weight="bold" lengthAdjust="spacing" textLength="40" x="44" y="66.5332">unibo</text></g><!--cluster pps--><g id="cluster_pps"><polygon fill="none" points="64,94,96,94,103,117.6094,1337,117.6094,1337,920,64,920,64,94" style="stroke:#000000;stroke-width:1.5;"/><line style="stroke:#000000;stroke-width:1.5;" x1="64" x2="103" y1="117.6094" y2="117.6094"/><text fill="#000000" font-family="sans-serif" font-size="14" font-weight="bold" lengthAdjust="spacing" textLength="26" x="68" y="110.5332">pps</text></g><!--cluster e2--><g id="cluster_e2"><polygon fill="none" points="88,138,111,138,118,161.6094,1313,161.6094,1313,896,88,896,88,138" style="stroke:#000000;stroke-width:1.5;"/><line style="stroke:#000000;stroke-width:1.5;" x1="88" x2="118" y1="161.6094" y2="161.6094"/><text fill="#000000" font-family="sans-serif" font-size="14" font-weight="bold" lengthAdjust="spacing" textLength="17" x="92" y="154.5332">e2</text></g><!--class Logics--><g id="elem_Logics"><rect codeLine="6" fill="#F1F1F1" height="96.4375" id="Logics" rx="2.5" ry="2.5" style="stroke:#181818;stroke-width:0.5;" width="242" x="839" y="174"/><text fill="#000000" font-family="sans-serif" font-size="14" font-style="italic" lengthAdjust="spacing" textLength="41" x="939.5" y="193.5332">Logics</text><line style="stroke:#181818;stroke-width:0.5;" x1="840" x2="1080" y1="201.6094" y2="201.6094"/><line style="stroke:#181818;stroke-width:0.5;" x1="840" x2="1080" y1="209.6094" y2="209.6094"/><text fill="#000000" font-family="sans-serif" font-size="14" lengthAdjust="spacing" textLength="182" x="845" y="228.1426">+hit(row:int, col:int) : boolean</text><text fill="#000000" font-family="sans-serif" font-size="14" lengthAdjust="spacing" textLength="230" x="845" y="245.752">+hasKnight(row:int, col:int) : boolean</text><text fill="#000000" font-family="sans-serif" font-size="14" lengthAdjust="spacing" textLength="224" x="845" y="263.3613">+hasPawn(row:int, col:int) : boolean</text></g><!--class LogicsImpl--><g id="elem_LogicsImpl"><rect codeLine="12" fill="#F1F1F1" height="202.0938" id="LogicsImpl" rx="2.5" ry="2.5" style="stroke:#181818;stroke-width:0.5;" width="674" x="623" y="330"/><text fill="#000000" font-family="sans-serif" font-size="14" lengthAdjust="spacing" textLength="66" x="927" y="349.5332">LogicsImpl</text><line style="stroke:#181818;stroke-width:0.5;" x1="624" x2="1296" y1="357.6094" y2="357.6094"/><text fill="#000000" font-family="sans-serif" font-size="14" lengthAdjust="spacing" textLength="183" x="629" y="376.1426">-pawn : Pair&lt;Integer,Integer&gt;</text><text fill="#000000" font-family="sans-serif" font-size="14" lengthAdjust="spacing" textLength="188" x="629" y="393.752">-knight : Pair&lt;Integer,Integer&gt;</text><text fill="#000000" font-family="sans-serif" font-size="14" lengthAdjust="spacing" textLength="92" x="629" y="411.3613">-board : Board</text><text fill="#000000" font-family="sans-serif" font-size="14" lengthAdjust="spacing" textLength="143" x="629" y="428.9707">-moveRule : MoveRule</text><line style="stroke:#181818;stroke-width:0.5;" x1="624" x2="1296" y1="436.0469" y2="436.0469"/><text fill="#000000" font-family="sans-serif" font-size="14" lengthAdjust="spacing" textLength="127" x="629" y="454.5801">+LogicsImpl(size:int)</text><text fill="#000000" font-family="sans-serif" font-size="14" lengthAdjust="spacing" textLength="662" x="629" y="472.1895">+LogicsImpl(board:Board, moveRule:MoveRule, pawn:Pair&lt;Integer,Integer&gt;, knight:Pair&lt;Integer,Integer&gt;)</text><text fill="#000000" font-family="sans-serif" font-size="14" lengthAdjust="spacing" textLength="182" x="629" y="489.7988">+hit(row:int, col:int) : boolean</text><text fill="#000000" font-family="sans-serif" font-size="14" lengthAdjust="spacing" textLength="230" x="629" y="507.4082">+hasKnight(row:int, col:int) : boolean</text><text fill="#000000" font-family="sans-serif" font-size="14" lengthAdjust="spacing" textLength="224" x="629" y="525.0176">+hasPawn(row:int, col:int) : boolean</text></g><!--class MoveRule--><g id="elem_MoveRule"><rect codeLine="24" fill="#F1F1F1" height="61.2188" id="MoveRule" rx="2.5" ry="2.5" style="stroke:#181818;stroke-width:0.5;" width="456" x="460" y="609.5"/><text fill="#000000" font-family="sans-serif" font-size="14" font-style="italic" lengthAdjust="spacing" textLength="63" x="656.5" y="629.0332">MoveRule</text><line style="stroke:#181818;stroke-width:0.5;" x1="461" x2="915" y1="637.1094" y2="637.1094"/><line style="stroke:#181818;stroke-width:0.5;" x1="461" x2="915" y1="645.1094" y2="645.1094"/><text fill="#000000" font-family="sans-serif" font-size="14" lengthAdjust="spacing" textLength="444" x="466" y="663.6426">+isValid(from:Pair&lt;Integer,Integer&gt;, to:Pair&lt;Integer,Integer&gt;) : boolean</text></g><!--class StandardKnightMoveRule--><g id="elem_StandardKnightMoveRule"><rect codeLine="28" fill="#F1F1F1" height="61.2188" id="StandardKnightMoveRule" rx="2.5" ry="2.5" style="stroke:#181818;stroke-width:0.5;" width="456" x="460" y="783.5"/><text fill="#000000" font-family="sans-serif" font-size="14" lengthAdjust="spacing" textLength="161" x="607.5" y="803.0332">StandardKnightMoveRule</text><line style="stroke:#181818;stroke-width:0.5;" x1="461" x2="915" y1="811.1094" y2="811.1094"/><line style="stroke:#181818;stroke-width:0.5;" x1="461" x2="915" y1="819.1094" y2="819.1094"/><text fill="#000000" font-family="sans-serif" font-size="14" lengthAdjust="spacing" textLength="444" x="466" y="837.6426">+isValid(from:Pair&lt;Integer,Integer&gt;, to:Pair&lt;Integer,Integer&gt;) : boolean</text></g><!--class PlacementStrategy--><g id="elem_PlacementStrategy"><rect codeLine="32" fill="#F1F1F1" height="78.8281" id="PlacementStrategy" rx="2.5" ry="2.5" style="stroke:#181818;stroke-width:0.5;" width="484" x="104" y="182.5"/><text fill="#000000" font-family="sans-serif" font-size="14" font-style="italic" lengthAdjust="spacing" textLength="119" x="286.5" y="202.0332">PlacementStrategy</text><line style="stroke:#181818;stroke-width:0.5;" x1="105" x2="587" y1="210.1094" y2="210.1094"/><line style="stroke:#181818;stroke-width:0.5;" x1="105" x2="587" y1="218.1094" y2="218.1094"/><text fill="#000000" font-family="sans-serif" font-size="14" lengthAdjust="spacing" textLength="289" x="110" y="236.6426">+pawnPosition(size:int) : Pair&lt;Integer,Integer&gt;</text><text fill="#000000" font-family="sans-serif" font-size="14" lengthAdjust="spacing" textLength="472" x="110" y="254.252">+knightPosition(size:int, pawn:Pair&lt;Integer,Integer&gt;) : Pair&lt;Integer,Integer&gt;</text></g><!--class RandomPlacementStrategy--><g id="elem_RandomPlacementStrategy"><rect codeLine="37" fill="#F1F1F1" height="114.0469" id="RandomPlacementStrategy" rx="2.5" ry="2.5" style="stroke:#181818;stroke-width:0.5;" width="484" x="104" y="374"/><text fill="#000000" font-family="sans-serif" font-size="14" lengthAdjust="spacing" textLength="172" x="260" y="393.5332">RandomPlacementStrategy</text><line style="stroke:#181818;stroke-width:0.5;" x1="105" x2="587" y1="401.6094" y2="401.6094"/><text fill="#000000" font-family="sans-serif" font-size="14" lengthAdjust="spacing" textLength="118" x="110" y="420.1426">-random : Random</text><line style="stroke:#181818;stroke-width:0.5;" x1="105" x2="587" y1="427.2188" y2="427.2188"/><text fill="#000000" font-family="sans-serif" font-size="14" lengthAdjust="spacing" textLength="295" x="110" y="445.752">+RandomPlacementStrategy(random:Random)</text><text fill="#000000" font-family="sans-serif" font-size="14" lengthAdjust="spacing" textLength="289" x="110" y="463.3613">+pawnPosition(size:int) : Pair&lt;Integer,Integer&gt;</text><text fill="#000000" font-family="sans-serif" font-size="14" lengthAdjust="spacing" textLength="472" x="110" y="480.9707">+knightPosition(size:int, pawn:Pair&lt;Integer,Integer&gt;) : Pair&lt;Integer,Integer&gt;</text></g><!--class Board--><g id="elem_Board"><rect codeLine="44" fill="#F1F1F1" height="96.4375" id="Board" rx="2.5" ry="2.5" style="stroke:#181818;stroke-width:0.5;" width="235" x="951.5" y="592"/><text fill="#000000" font-family="sans-serif" font-size="14" font-style="italic" lengthAdjust="spacing" textLength="38" x="1050" y="611.5332">Board</text><line style="stroke:#181818;stroke-width:0.5;" x1="952.5" x2="1185.5" y1="619.6094" y2="619.6094"/><line style="stroke:#181818;stroke-width:0.5;" x1="952.5" x2="1185.5" y1="627.6094" y2="627.6094"/><text fill="#000000" font-family="sans-serif" font-size="14" lengthAdjust="spacing" textLength="69" x="957.5" y="646.1426">+size() : int</text><text fill="#000000" font-family="sans-serif" font-size="14" lengthAdjust="spacing" textLength="214" x="957.5" y="663.752">+isInside(row:int, col:int) : boolean</text><text fill="#000000" font-family="sans-serif" font-size="14" lengthAdjust="spacing" textLength="223" x="957.5" y="681.3613">+ensureInside(row:int, col:int) : void</text></g><!--class StandardBoard--><g id="elem_StandardBoard"><rect codeLine="50" fill="#F1F1F1" height="131.6563" id="StandardBoard" rx="2.5" ry="2.5" style="stroke:#181818;stroke-width:0.5;" width="235" x="951.5" y="748"/><text fill="#000000" font-family="sans-serif" font-size="14" lengthAdjust="spacing" textLength="96" x="1021" y="767.5332">StandardBoard</text><line style="stroke:#181818;stroke-width:0.5;" x1="952.5" x2="1185.5" y1="775.6094" y2="775.6094"/><text fill="#000000" font-family="sans-serif" font-size="14" lengthAdjust="spacing" textLength="56" x="957.5" y="794.1426">-size : int</text><line style="stroke:#181818;stroke-width:0.5;" x1="952.5" x2="1185.5" y1="801.2188" y2="801.2188"/><text fill="#000000" font-family="sans-serif" font-size="14" lengthAdjust="spacing" textLength="157" x="957.5" y="819.752">+StandardBoard(size:int)</text><text fill="#000000" font-family="sans-serif" font-size="14" lengthAdjust="spacing" textLength="69" x="957.5" y="837.3613">+size() : int</text><text fill="#000000" font-family="sans-serif" font-size="14" lengthAdjust="spacing" textLength="214" x="957.5" y="854.9707">+isInside(row:int, col:int) : boolean</text><text fill="#000000" font-family="sans-serif" font-size="14" lengthAdjust="spacing" textLength="223" x="957.5" y="872.5801">+ensureInside(row:int, col:int) : void</text></g><!--reverse link Logics to LogicsImpl--><g id="link_Logics_LogicsImpl"><path codeLine="58" d="M960,288.23 C960,306.01 960,308.97 960,329.76 " fill="none" id="Logics-backto-LogicsImpl" style="stroke:#181818;stroke-width:1.0;stroke-dasharray:7.0,7.0;"/><polygon fill="none" points="960,270.23,954,288.23,966,288.23,960,270.23" style="stroke:#181818;stroke-width:1.0;"/></g><!--reverse link MoveRule to StandardKnightMoveRule--><g id="link_MoveRule_StandardKnightMoveRule"><path codeLine="60" d="M688,688.57 C688,720.07 688,751.67 688,783.24 " fill="none" id="MoveRule-backto-StandardKnightMoveRule" style="stroke:#181818;stroke-width:1.0;stroke-dasharray:7.0,7.0;"/><polygon fill="none" points="688,670.57,682,688.57,694,688.57,688,670.57" style="stroke:#181818;stroke-width:1.0;"/></g><!--reverse link PlacementStrategy to RandomPlacementStrategy--><g id="link_PlacementStrategy_RandomPlacementStrategy"><path codeLine="61" d="M346,279.94 C346,311.44 346,338.23 346,373.65 " fill="none" id="PlacementStrategy-backto-RandomPlacementStrategy" style="stroke:#181818;stroke-width:1.0;stroke-dasharray:7.0,7.0;"/><polygon fill="none" points="346,261.94,340,279.94,352,279.94,346,261.94" style="stroke:#181818;stroke-width:1.0;"/></g><!--reverse link Board to StandardBoard--><g id="link_Board_StandardBoard"><path codeLine="62" d="M1069,706.46 C1069,724.85 1069,728.21 1069,748 " fill="none" id="Board-backto-StandardBoard" style="stroke:#181818;stroke-width:1.0;stroke-dasharray:7.0,7.0;"/><polygon fill="none" points="1069,688.46,1063,706.46,1075,706.46,1069,688.46" style="stroke:#181818;stroke-width:1.0;"/></g><!--reverse link LogicsImpl to Board--><g id="link_LogicsImpl_Board"><path codeLine="64" d="M1018.3336,542.7866 C1029.3136,563.6266 1034.79,574.04 1044.18,591.86 " fill="none" id="LogicsImpl-backto-Board" style="stroke:#181818;stroke-width:1.0;"/><polygon fill="#181818" points="1012.74,532.17,1011.9979,539.3428,1018.3336,542.7866,1019.0757,535.6138,1012.74,532.17" style="stroke:#181818;stroke-width:1.0;"/></g><!--reverse link LogicsImpl to MoveRule--><g id="link_LogicsImpl_MoveRule"><path codeLine="65" d="M818.8304,539.4367 C781.8104,567.6067 753.91,588.84 727.01,609.31 " fill="none" id="LogicsImpl-backto-MoveRule" style="stroke:#181818;stroke-width:1.0;"/><polygon fill="#181818" points="828.38,532.17,821.183,532.6201,818.8304,539.4367,826.0274,538.9866,828.38,532.17" style="stroke:#181818;stroke-width:1.0;"/></g><!--SRC=[pLMnReCm4Dtv2giJQG1L7L5KgTrGMmabKdS3Jc85R6IRH6cRV-zX29W4IBgqOG34lJk_T_Tiv8Qo70kS8QdsAO6xeB4gijIIJIHEiPJF2Y9HeKWGSxQWdmGzM5QEumrU4NH7bLSm6d4lpwL77k_GbsKXk2XJH2nnJD0RNz5OmdTKNrEqfieMVES3o44nJykN2V9Hn7bAC3EHMBuokbh_0X_Y7Rk8FbGijS2QOP3bgS7IHJaKWhGGKp4BGCwA2AT-FXcmZUPt1J3YM2I0UocVnlUCRycyW17uwBr-DHIrv6m9pTTY-iEwlg-hEqrH_rZIqNhyNf9EBQ8_Ehd5oRN-EWhiE8pA3vpIn5uAdWrfLdn0xvXN5Wgp13fSQVkhjLkrOGhtZ32rK093phwpT3dYa4kgA6UjNIvwSrhF_onrp3JZPJjDcqFFU3P6tKL2Ow1c1JQu3MJRLOPVXIUtt8LsV7ftTaPMBcANLG3KCL7094t8bRk7C5a8CfAovJGPTlCfBLVJEYFLWVSUH_-aflx7pBuzppWHgrYpHtMqV_zguBa_TSQ0_NHArRTEuUfqDrZf_ygzwnhd_acWON6mVW00]--></g></svg>